<svg width="128" height="22" viewBox="0 0 128 22" fill="none" xmlns="http://www.w3.org/2000/svg">
<path d="M19.3991 15.1265L12.4419 21.3087C12.2228 21.5035 11.8781 21.3467 11.8781 21.0522L11.8781 0.34268C11.8781 0.0471668 12.2249 -0.109261 12.4436 0.087616L19.4008 6.35126C19.4728 6.41614 19.514 6.50892 19.514 6.60632V14.8699C19.514 14.9681 19.4722 15.0615 19.3991 15.1265Z" fill="#25406B"/>
<path d="M9.13612 18.5669L6.33628 19.8745C6.11136 19.9796 5.85421 19.8141 5.85421 19.5642L5.85421 1.78922C5.85421 1.54849 6.09443 1.38309 6.31696 1.4706L9.1168 2.57174C9.24705 2.62296 9.3328 2.74945 9.3328 2.89036L9.3328 18.2566C9.3328 18.3898 9.25605 18.5109 9.13612 18.5669Z" fill="#25406B"/>
<path d="M3.21198 17.508L0.412139 18.1274C0.200425 18.1742 0 18.0118 0 17.7933L0 3.59496C0 3.37651 0.200425 3.21406 0.412139 3.26089L3.21198 3.88028C3.36766 3.91472 3.47859 4.05371 3.47859 4.21435L3.47859 17.1739C3.47859 17.3346 3.36766 17.4736 3.21198 17.508Z" fill="#25406B"/>
<path d="M30.2495 16.6927H32.7722V12.03H35.5211L37.9047 16.6927H40.7231L38.0264 11.6821C39.4705 11.1079 40.41 9.83787 40.41 8.28945C40.41 6.0625 38.6702 4.51407 36.1996 4.51407H30.2495V16.6927ZM35.9735 6.68882C37.1043 6.68882 37.8525 7.34995 37.8525 8.32424C37.8525 9.29853 37.1043 9.95966 35.9735 9.95966H32.7722V6.68882H35.9735Z" fill="#25406B"/>
<path d="M49.4994 15.5618L47.9335 14.1352C47.4464 14.6049 46.7331 14.8659 45.9328 14.8659C44.6801 14.8659 43.6884 14.1004 43.3579 12.9695H50.1083V12.3432C50.1083 9.5595 48.1945 7.47174 45.6196 7.47174C42.9925 7.47174 40.9569 9.54211 40.9569 12.1692C40.9569 14.8137 43.0795 16.8667 45.8284 16.8667C47.2724 16.8667 48.3859 16.4665 49.4994 15.5618ZM45.5674 9.43772C46.6113 9.43772 47.4812 10.1858 47.777 11.2645H43.3405C43.6362 10.151 44.4713 9.43772 45.5674 9.43772Z" fill="#25406B"/>
<path d="M54.4054 16.8493C55.4492 16.8493 56.2669 16.6057 57.0325 16.0664V16.6927H59.3812V10.8122C59.3812 8.6722 57.972 7.45434 55.5188 7.45434C54.214 7.45434 52.9091 7.7675 51.4825 8.42863L52.3524 10.1858C53.5007 9.68129 54.3532 9.43772 55.1187 9.43772C56.3887 9.43772 57.0325 9.97706 57.0325 11.0209V11.6647C56.3191 11.4385 55.571 11.3167 54.8229 11.3167C52.4916 11.3167 51.0997 12.3432 51.0997 14.0656C51.0997 15.7184 52.4568 16.8493 54.4054 16.8493ZM53.3789 14.0134C53.3789 13.3175 54.0226 12.8825 55.1187 12.8825C55.8146 12.8825 56.4409 12.9869 57.0325 13.2131V14.5701C56.4757 14.9529 55.8146 15.1443 55.0317 15.1443C54.0226 15.1443 53.3789 14.7093 53.3789 14.0134Z" fill="#25406B"/>
<path d="M63.5687 3.99213L61.1852 4.51407V16.6927H63.5687V3.99213Z" fill="#25406B"/>
<path d="M66.668 14.1352C66.668 15.9098 67.7119 16.8319 69.73 16.8319C70.252 16.8319 71.0697 16.7101 71.5742 16.5535V14.6049C71.1045 14.7615 70.7565 14.8137 70.3042 14.8137C69.3821 14.8137 69.0515 14.5006 69.0515 13.648V9.6291H71.6264V7.62832H69.0515V4.77504L66.668 5.31438V7.62832H64.8064V9.6291H66.668V14.1352Z" fill="#25406B"/>
<path d="M75.4295 17.1103C75.0816 17.928 74.49 18.3455 73.6375 18.3455C73.2722 18.3455 73.046 18.3281 72.8024 18.2759V20.3289C73.046 20.3985 73.4462 20.4333 73.8637 20.4333C75.8471 20.4333 76.9432 19.5982 77.8827 17.406L82.0582 7.62832H79.4833L76.9084 13.8046L74.664 7.62832H72.0369L75.5687 16.7797L75.4295 17.1103Z" fill="#25406B"/>
<path d="M82.1134 14.7615C83.5748 16.1012 85.5408 16.8667 87.5068 16.8667C90.6384 16.8667 92.6392 15.3531 92.6392 12.9695C92.6392 11.0905 91.4387 9.94226 89.003 9.54211L86.7065 9.15935C85.4538 8.96797 84.9667 8.58521 84.9667 7.8371C84.9667 7.00199 85.8366 6.46265 87.1936 6.46265C88.5159 6.46265 89.7337 6.9324 91.0386 7.92409L92.3956 6.0451C91.0386 4.98382 89.1422 4.34009 87.3676 4.34009C84.4099 4.34009 82.5657 5.74933 82.5657 8.02848C82.5657 9.80308 83.6618 10.934 85.7496 11.2819L88.1679 11.6995C89.6119 11.943 90.1687 12.3606 90.1687 13.1957C90.1687 14.1352 89.1944 14.7267 87.6808 14.7267C86.2193 14.7267 84.9841 14.1874 83.5574 12.9521L82.1134 14.7615Z" fill="#25406B"/>
<path d="M94.8889 14.1352C94.8889 15.9098 95.9327 16.8319 97.9509 16.8319C98.4729 16.8319 99.2906 16.7101 99.7951 16.5535V14.6049C99.3254 14.7615 98.9774 14.8137 98.5251 14.8137C97.603 14.8137 97.2724 14.5006 97.2724 13.648V9.6291H99.8473V7.62832H97.2724V4.77504L94.8889 5.31438V7.62832H93.0273V9.6291H94.8889V14.1352Z" fill="#25406B"/>
<path d="M100.525 12.1692C100.525 14.8137 102.647 16.8667 105.362 16.8667C108.076 16.8667 110.198 14.8137 110.198 12.1692C110.198 9.52471 108.076 7.45434 105.362 7.45434C102.647 7.45434 100.525 9.52471 100.525 12.1692ZM105.362 14.7963C103.952 14.7963 102.856 13.6306 102.856 12.1692C102.856 10.673 103.97 9.52471 105.362 9.52471C106.771 9.52471 107.867 10.673 107.867 12.1692C107.867 13.6306 106.771 14.7963 105.362 14.7963Z" fill="#25406B"/>
<path d="M111.663 16.6927H114.047V10.8296C114.499 9.94226 115.317 9.47251 116.239 9.47251C116.674 9.47251 117.109 9.5595 117.457 9.71609V7.62832C117.213 7.48914 116.935 7.43694 116.465 7.41954C115.456 7.41954 114.621 7.8371 114.047 8.62001V7.62832H111.663V16.6927Z" fill="#25406B"/>
<path d="M121.371 17.1103C121.023 17.928 120.432 18.3455 119.579 18.3455C119.214 18.3455 118.988 18.3281 118.744 18.2759V20.3289C118.988 20.3985 119.388 20.4333 119.805 20.4333C121.789 20.4333 122.885 19.5982 123.824 17.406L128 7.62832H125.425L122.85 13.8046L120.606 7.62832H117.979L121.51 16.7797L121.371 17.1103Z" fill="#25406B"/>
</svg>
