<svg width="20" height="22" viewBox="0 0 20 22" fill="none" xmlns="http://www.w3.org/2000/svg">
<path d="M19.3991 15.1265L12.4419 21.3087C12.2228 21.5035 11.8781 21.3467 11.8781 21.0522L11.8781 0.34268C11.8781 0.0471666 12.2249 -0.109262 12.4436 0.087616L19.4008 6.35126C19.4728 6.41614 19.514 6.50892 19.514 6.60632V14.8699C19.514 14.9681 19.4722 15.0615 19.3991 15.1265Z" fill="white"/>
<path d="M9.13612 18.5669L6.33628 19.8745C6.11136 19.9796 5.85421 19.8141 5.85421 19.5642L5.85421 1.78922C5.85421 1.54849 6.09443 1.38309 6.31696 1.4706L9.1168 2.57174C9.24705 2.62297 9.3328 2.74945 9.3328 2.89036L9.3328 18.2566C9.3328 18.3898 9.25605 18.5109 9.13612 18.5669Z" fill="white"/>
<path d="M3.21198 17.508L0.412139 18.1274C0.200425 18.1742 0 18.0118 0 17.7933L0 3.59496C0 3.37651 0.200425 3.21405 0.412139 3.26089L3.21198 3.88028C3.36766 3.91472 3.47859 4.05371 3.47859 4.21435L3.47859 17.1739C3.47859 17.3346 3.36766 17.4736 3.21198 17.508Z" fill="white"/>
</svg>
